# xmcd
#
# Track frame offsets:
#	150
#	18793
#	33608
#	51450
#	68899
#	86129
#	107010
#	128695
#	148121
#	171398
#	190122
#	214447
#	227164
#	241052
#
# Disc length: 3744 seconds
#
# Revision: 0
# Processed by: cddbd v1.5.1PL0 Copyright (c) Steve Scherf et al.
# Submitted via: dBpowerAMP V4.0
#
DISCID=cb0e9e0e
DTITLE=Elliott Murphy  - Murphy Gets Muddy
DYEAR=2005
DGENRE=Blues
TTITLE0=Terraplane Blues (Robert Johnson)
TTITLE1=I Got My Mojo Working (Muddy Waters)
TTITLE2=Hey Gunslinger (Elliott Murphy/Olivier Durand)
TTITLE3=Baby Please Don't Go (Muddy Waters)
TTITLE4=I'm Ready (Willie Dixon)
TTITLE5=TheThrill Is Gone (Hawkins/Darnell)
TTITLE6=Tip On In-Part I (Slim Harpo)
TTITLE7=Open City (Elliott Murphy/Olivier Durand)
TTITLE8=Who Am I Blues (Elliott Murphy/Olivier Durand)
TTITLE9=Baby What You Want Me To Do (Jimmy Reed)
TTITLE10=Mannish Boy (Muddy Waters)
TTITLE11=Artificial Paradise (Elliott Murphy)
TTITLE12=I Can't Be Satisfied (Muddy Waters)
TTITLE13=The Beginning And The End (Elliott Murphy)
EXTD=
EXTT0=
EXTT1=
EXTT2=
EXTT3=
EXTT4=
EXTT5=
EXTT6=
EXTT7=
EXTT8=
EXTT9=
EXTT10=
EXTT11=
EXTT12=
EXTT13=
PLAYORDER=
